Coordinates
version=1
nRows=22
nColumns=24
inDegrees=yes

Units are S.I. units (second, meters, Newtons, ...)
Angles are in degrees.

endheader
time	pelvis_tilt	pelvis_list	pelvis_rotation	pelvis_tx	pelvis_ty	pelvis_tz	hip_flexion_r	hip_adduction_r	hip_rotation_r	knee_angle_r	ankle_angle_r	subtalar_angle_r	mtp_angle_r	hip_flexion_l	hip_adduction_l	hip_rotation_l	knee_angle_l	ankle_angle_l	subtalar_angle_l	mtp_angle_l	lumbar_extension	lumbar_bending	lumbar_rotation
      1.07966667	     -2.93875145	      4.23883733	     -3.12436327	      0.14612627	      0.89802900	      0.31141220	     19.76247354	     -6.41909602	     -4.64664574	    -78.68560575	      3.74388415	     11.93437675	      9.30850573	     16.21496188	      6.58802624	     -6.46946392	    -26.11405046	     14.20854537	     -3.63015835	      2.64919846	     -4.83692722	     -6.89339257	      3.69692795
      1.08383333	     -2.94554316	      4.05839015	     -3.03266536	      0.15139296	      0.89944317	      0.31127542	     20.47576721	     -6.16413078	     -4.69156956	    -78.58084134	      3.98430590	     11.63551808	      9.18641709	     15.51486562	      6.51943472	     -6.11886314	    -25.46061806	     14.16982237	     -3.84419664	      2.61702399	     -4.85859864	     -6.67684215	      3.43246454
      1.08800000	     -2.96374736	      3.85710983	     -2.93466733	      0.15664086	      0.90078778	      0.31117355	     21.18063939	     -5.87285791	     -4.73994379	    -78.41355443	      4.35117832	     11.31932050	      9.13605306	     14.85574099	      6.39821171	     -5.86034000	    -24.87109156	     14.15645636	     -3.87434208	      2.60040118	     -4.88742860	     -6.44432127	      3.31839900
      1.09216667	     -2.95668433	      3.65659842	     -2.83155691	      0.16192453	      0.90219227	      0.31102528	     21.83195547	     -5.59647338	     -4.80413127	    -78.15261182	      4.56322850	     10.96539512	      9.03316030	     14.13195148	      6.30062191	     -5.51287349	    -24.19977285	     14.11591866	     -4.07562925	      2.56308862	     -4.92901060	     -6.20274856	      3.08671848
      1.09633333	     -2.96703863	      3.44111213	     -2.71988808	      0.16717866	      0.90351643	      0.31089927	     22.48342118	     -5.29576019	     -4.87580593	    -77.83377000	      4.90948980	     10.61561297	      8.98137371	     13.45500419	      6.16223144	     -5.23606075	    -23.58335688	     14.06268737	     -4.12915479	      2.54060161	     -4.96669465	     -5.95052546	      2.96122364
      1.10050000	     -2.95457406	      3.24092017	     -2.60698912	      0.17246586	      0.90487693	      0.31074424	     23.08834257	     -5.02537425	     -4.95544667	    -77.43320642	      5.11218091	     10.25298322	      8.85107384	     12.71183126	      6.06191246	     -4.86593982	    -22.87358789	     13.98276752	     -4.37450947	      2.48478825	     -5.00889711	     -5.73216432	      2.70234405
      1.10466667	     -2.94965765	      3.01488415	     -2.48707564	      0.17772232	      0.90616699	      0.31059489	     23.68051843	     -4.72358236	     -5.04763830	    -76.97185838	      5.41194150	      9.85888285	      8.79404511	     12.01286311	      5.90490818	     -4.59876785	    -22.23752028	     13.92097987	     -4.42705391	      2.45852317	     -5.06309769	     -5.43630435	      2.58730329
      1.10883333	     -2.92892526	      2.82424430	     -2.36353358	      0.18299953	      0.90746335	      0.31039571	     24.24011910	     -4.48043976	     -5.14701241	    -76.44648551	      5.60986144	      9.47306458	      8.60151455	     11.25085429	      5.81370852	     -4.21094480	    -21.49197226	     13.79741752	     -4.72916350	      2.37249595	     -5.11280683	     -5.20436265	      2.29771286
      1.11300000	     -2.89473342	      2.58730916	     -2.24223390	      0.18826124	      0.90873918	      0.31026022	     24.75468828	     -4.17264338	     -5.25416886	    -75.83613765	      5.79913403	      9.03163578	      8.50521457	     10.50676795	      5.63739855	     -3.94337495	    -20.82232052	     13.75578035	     -4.80012858	      2.33145212	     -5.19195281	     -4.91807705	      2.17325339
      1.11716667	     -2.85863600	      2.36218319	     -2.11351373	      0.19351627	      0.90997500	      0.31010810	     25.24897042	     -3.88611873	     -5.36864809	    -75.16847111	      5.98519717	      8.58134031	      8.40016974	      9.75302183	      5.47542216	     -3.64966260	    -20.12521639	     13.66880075	     -4.93072404	      2.28693084	     -5.27192857	     -4.64538062	      1.98890548
      1.12133333	     -2.82237226	      2.14326976	     -1.98429385	      0.19875690	      0.91115667	      0.30995781	     25.72645425	     -3.60930361	     -5.48486023	    -74.44176859	      6.15748539	      8.11855411	      8.28762695	      8.99899401	      5.31510010	     -3.36164871	    -19.41977716	     13.56795559	     -5.07218720	      2.24169067	     -5.34912530	     -4.37908450	      1.80156958
      1.12550000	     -2.79295774	      1.95450102	     -1.84308013	      0.20397250	      0.91226829	      0.30977340	     26.19929602	     -3.37846324	     -5.60696467	    -73.67390061	      6.35379520	      7.67108089	      8.02615813	      8.24042831	      5.19696271	     -3.00262046	    -18.67096561	     13.38328395	     -5.34935576	      2.14196259	     -5.41996582	     -4.15600628	      1.52654198
      1.12966667	     -2.73839013	      1.72184387	     -1.71569827	      0.20919023	      0.91337355	      0.30965333	     26.61341881	     -3.08676542	     -5.72904416	    -72.81628782	      6.45652974	      7.16912572	      7.89531791	      7.48050205	      4.99915112	     -2.77915777	    -17.98767545	     13.32836725	     -5.39639141	      2.09783764	     -5.51952938	     -3.87032198	      1.39873209
      1.13383333	     -2.69648064	      1.49022280	     -1.57336847	      0.21437251	      0.91440280	      0.30954413	     27.02055958	     -2.79748555	     -5.86121493	    -71.90221486	      6.60356908	      6.66017584	      7.80282198	      6.74812469	      4.79426227	     -2.55600644	    -17.31894608	     13.19723232	     -5.43759787	      2.06741872	     -5.61571956	     -3.60099634	      1.25242279
      1.13800000	     -2.62583308	      1.29711103	     -1.44622581	      0.21956260	      0.91539649	      0.30941210	     27.38955049	     -2.56142474	     -5.98195196	    -70.94823325	      6.62719804	      6.11430248	      7.64503373	      5.95243966	      4.64189892	     -2.28470830	    -16.57770094	     13.12134040	     -5.60676530	      2.02249222	     -5.72728711	     -3.35621848	      1.01537126
      1.14216667	     -2.57082607	      1.09552398	     -1.30847890	      0.22472822	      0.91630747	      0.30930106	     27.75077965	     -2.31360180	     -6.10873425	    -69.93425483	      6.69138093	      5.57389011	      7.47639117	      5.19389295	      4.46677921	     -2.03539858	    -15.87053146	     12.99773258	     -5.73062925	      1.97768977	     -5.82962400	     -3.11381289	      0.80979654
      1.14633333	     -2.51116442	      0.89676836	     -1.16970774	      0.22987451	      0.91715444	      0.30920630	     28.08829649	     -2.06797427	     -6.23627264	    -68.86620659	      6.72583977	      5.01637759	      7.31688831	      4.43976393	      4.28514969	     -1.81741166	    -15.17760314	     12.88382375	     -5.81997909	      1.93980877	     -5.93688707	     -2.87356163	      0.61438271
      1.15050000	     -2.45780663	      0.72191093	     -1.00741203	      0.23499444	      0.91792039	      0.30905959	     28.41340684	     -1.86717741	     -6.38202696	    -67.75966627	      6.83910370	      4.53922093	      5.61686402	      3.67527185	      4.14524167	     -1.44422979	    -14.43824591	     12.71760694	     -6.13463262	      1.57415464	     -6.04104530	     -2.65928124	      0.46801887
      1.15466667	     -2.40201063	      0.53518740	     -0.89663740	      0.24011186	      0.91861078	      0.30907038	     28.72266338	     -1.60844840	     -6.46760697	    -66.58675263	      6.80397057	      3.91302326	      5.55063627	      2.95252122	      3.94438634	     -1.37928899	    -13.79220692	     12.59599468	     -6.04428849	      1.55908932	     -6.14008848	     -2.45036455	      0.23951522
      1.15883333	     -2.33293501	      0.36447755	     -0.76681745	      0.24521881	      0.91923511	      0.30902553	     28.99767129	     -1.38726388	     -6.57403505	    -65.37293696	      6.73586493	      3.30671822	      5.44426141	      2.20224384	      3.77297789	     -1.20021422	    -13.11876793	     12.55386912	     -6.07293288	      1.54126477	     -6.26137510	     -2.24425086	     -0.00888475
      1.16300000	     -2.28293599	      0.19062763	     -0.62963867	      0.25031147	      0.91976784	      0.30901022	     29.26654407	     -1.15899773	     -6.68371439	    -64.09994671	      6.71137603	      2.72475104	      5.35809570	      1.49476619	      3.58425820	     -1.06964561	    -12.48167501	     12.42224687	     -6.06309400	      1.52829613	     -6.35595635	     -2.04271364	     -0.19255383
      1.16716667	     -2.22277185	      0.03735548	     -0.50713650	      0.25540143	      0.92022316	      0.30901807	     29.51227229	     -0.94729826	     -6.77296730	    -62.79135997	      6.62805003	      2.12326193	      5.25688128	      0.76636088	      3.41813128	     -0.92687623	    -11.82638023	     12.34202554	     -6.07691317	      1.51706020	     -6.46364520	     -1.86139575	     -0.39956415
